<?xml version="1.0" standalone="no"?>
<!DOCTYPE svg PUBLIC "-//W3C//DTD SVG 20010904//EN"
 "http://www.w3.org/TR/2001/REC-SVG-20010904/DTD/svg10.dtd">
<svg version="1.0" xmlns="http://www.w3.org/2000/svg"
 width="512.000000pt" height="512.000000pt" viewBox="0 0 512.000000 512.000000"
 preserveAspectRatio="xMidYMid meet">

<g transform="translate(0.000000,512.000000) scale(0.100000,-0.100000)"
fill="#000000" stroke="none">
<path d="M2 2808 l3 -2313 22 -65 c72 -210 259 -376 466 -415 68 -13 354 -15
2072 -15 2212 0 2069 -4 2215 67 104 50 222 169 274 273 70 145 66 -30 66
2498 l0 2282 -2560 0 -2560 0 2 -2312z m2574 939 c10 -29 15 -32 55 -35 l44
-3 -35 -29 c-33 -27 -34 -29 -22 -66 6 -21 10 -40 8 -41 -2 -2 -17 8 -35 22
l-31 26 -35 -26 c-38 -29 -41 -26 -24 25 11 31 10 34 -22 59 l-34 26 45 5 c42
5 45 7 53 43 10 42 17 41 33 -6z m-330 -87 c8 0 28 7 44 15 36 18 36 17 9 -29
l-21 -35 28 -37 c25 -32 26 -36 9 -31 -66 20 -69 19 -90 -18 -16 -31 -20 -34
-26 -18 -4 10 -8 30 -8 44 -1 22 -7 28 -43 36 l-43 10 40 17 c40 17 40 18 36
64 l-3 46 27 -32 c15 -18 33 -32 41 -32z m689 17 l-7 -43 44 -18 43 -18 -40
-11 c-47 -12 -54 -20 -55 -67 -1 -31 -3 -33 -13 -16 -34 53 -40 57 -76 46 -46
-13 -50 -6 -17 29 l27 28 -21 37 c-24 39 -16 45 30 21 28 -15 30 -14 56 20 14
19 28 35 31 35 2 0 1 -19 -2 -43z m-895 -247 c16 -16 20 -33 20 -83 0 -35 7
-88 16 -118 28 -96 148 -189 244 -189 27 0 90 18 90 26 0 2 11 47 25 100 20
74 23 99 14 110 -15 18 -47 18 -81 0 -28 -15 -28 -15 -28 18 0 109 261 160
324 63 10 -14 22 -75 32 -153 13 -110 18 -132 37 -148 48 -41 192 5 259 84 42
48 57 94 65 200 5 66 10 84 27 95 27 20 175 20 219 1 31 -13 85 -66 357 -351
68 -71 162 -169 207 -216 46 -47 83 -90 83 -94 0 -12 -140 1 -172 15 -14 7
-70 66 -124 131 -95 117 -104 126 -117 112 -8 -7 4 -24 181 -246 73 -93 131
-171 129 -174 -11 -10 -137 10 -165 27 -16 10 -73 82 -126 159 -84 123 -116
156 -116 121 0 -5 72 -118 161 -251 l160 -241 -63 7 c-113 12 -121 19 -235
221 -128 224 -115 206 -131 195 -13 -8 65 -161 247 -486 28 -49 46 -91 41 -93
-19 -7 -114 19 -147 39 -38 24 -56 57 -163 294 -86 193 -82 186 -98 176 -10
-6 9 -59 78 -217 118 -268 113 -248 63 -242 -57 8 -112 36 -127 67 -7 14 -40
101 -72 194 -34 98 -64 167 -71 167 -7 0 -13 -5 -13 -12 0 -7 27 -95 61 -196
34 -101 60 -185 58 -187 -10 -9 -116 36 -135 58 -17 20 -36 78 -85 270 -6 21
-16 37 -24 37 -19 0 -21 10 24 -170 21 -85 37 -157 35 -159 -9 -10 -96 34
-118 59 -22 27 -46 119 -46 178 0 38 -19 33 -38 -10 -38 -84 -39 -77 53 -212
47 -69 85 -136 85 -148 0 -13 19 -42 47 -70 46 -46 49 -48 106 -48 74 0 97
-12 97 -50 0 -30 0 -30 -20 -10 -11 11 -30 20 -42 20 l-21 0 21 -23 c23 -24
28 -52 13 -76 -7 -11 -12 -9 -22 10 -17 32 -39 48 -67 49 -37 0 -62 -18 -62
-45 0 -27 -9 -32 -28 -13 -19 19 -14 60 11 86 l22 24 -48 44 c-27 24 -57 44
-66 44 -9 0 -50 20 -90 45 -41 25 -78 44 -83 43 -5 -2 63 -102 152 -223 l161
-220 -38 -3 c-45 -4 -110 13 -137 36 -11 10 -43 66 -71 126 -29 60 -55 104
-59 98 -4 -6 20 -82 54 -168 33 -86 60 -160 60 -165 0 -14 -47 -11 -85 5 -47
20 -63 50 -95 174 -31 119 -36 104 -19 -61 10 -101 9 -109 -10 -140 -11 -18
-30 -42 -41 -52 -20 -18 -21 -18 -49 9 -50 48 -55 73 -42 200 19 187 10 206
-24 51 -30 -145 -70 -195 -154 -195 l-30 0 28 78 c16 42 45 117 65 166 20 50
32 94 28 98 -4 4 -30 -39 -56 -96 -51 -111 -72 -137 -125 -155 -34 -11 -121
-16 -121 -6 0 3 72 103 160 222 88 120 156 219 151 221 -5 2 -42 -17 -82 -42
-41 -26 -81 -46 -90 -46 -10 0 -39 -20 -65 -44 l-48 -43 26 -32 c27 -31 28
-49 5 -78 -15 -20 -27 -15 -27 12 0 27 -25 45 -64 45 -17 0 -34 -12 -53 -35
-19 -23 -30 -30 -35 -22 -14 22 -8 50 14 74 21 22 21 23 2 23 -11 0 -30 -7
-42 -16 -21 -14 -22 -14 -22 10 0 34 26 46 96 46 55 0 59 2 105 49 31 30 49
57 49 72 0 13 36 76 80 140 44 65 80 127 80 139 0 24 -39 120 -49 120 -4 0
-14 -43 -23 -96 -12 -70 -22 -102 -39 -120 -22 -24 -105 -61 -114 -52 -3 3 10
70 30 149 38 156 41 179 23 179 -8 0 -24 -46 -42 -118 -37 -149 -52 -188 -85
-211 -22 -15 -111 -44 -117 -38 -2 1 26 87 62 191 35 104 64 192 64 197 0 5
-7 9 -15 9 -8 0 -15 -1 -15 -3 0 -14 -122 -344 -134 -362 -9 -14 -30 -32 -46
-40 -32 -16 -120 -36 -120 -27 0 3 13 35 30 71 106 235 167 387 156 393 -6 4
-14 4 -17 0 -4 -4 -48 -99 -99 -211 -50 -113 -99 -215 -107 -227 -8 -13 -33
-32 -56 -43 -43 -20 -137 -39 -137 -27 0 4 47 91 103 194 206 372 211 382 185
382 -7 0 -55 -75 -107 -165 -106 -187 -122 -210 -160 -229 -32 -17 -155 -33
-150 -20 2 5 75 116 162 248 112 168 155 242 148 249 -6 6 -12 9 -14 6 -2 -2
-47 -67 -100 -144 -53 -77 -109 -148 -125 -157 -31 -19 -162 -36 -162 -22 0 5
70 97 155 204 85 107 154 201 155 208 0 28 -24 6 -115 -103 -52 -63 -106 -122
-120 -131 -25 -16 -175 -33 -175 -19 0 4 62 73 138 153 364 385 465 488 500
504 26 12 63 18 125 18 74 0 90 -3 107 -20z m577 -1841 c62 -23 113 -95 113
-159 0 -40 -32 -102 -66 -129 -88 -69 -209 -39 -255 63 -24 52 -24 88 0 134
44 86 127 122 208 91z m-1557 -276 c0 -12 7 -28 15 -37 8 -8 15 -20 15 -26 0
-6 -7 -18 -15 -26 -13 -14 -15 -11 -15 25 0 24 -5 41 -11 41 -17 0 -2 -110 18
-132 12 -14 30 -18 72 -17 41 1 49 3 31 8 -22 7 -20 8 17 12 42 4 84 -13 69
-28 -4 -5 -53 -8 -108 -7 -75 0 -102 4 -109 15 -10 16 -12 202 -2 212 9 10 23
-14 23 -40z m2948 -75 l3 -28 -86 0 c-67 0 -87 3 -91 15 -13 33 15 46 95 43
75 -3 76 -3 79 -30z m217 2 c0 -24 -2 -25 -81 -28 -66 -2 -83 0 -87 13 -15 38
2 46 87 43 79 -3 81 -4 81 -28z m-1615 -118 c0 -127 -5 -142 -50 -142 -45 0
-50 15 -50 142 l0 118 50 0 50 0 0 -118z m-120 40 c0 -36 -2 -38 -47 -51 -80
-23 -161 -123 -148 -181 30 -135 378 -170 497 -50 47 46 48 72 7 133 -39 59
-72 85 -126 100 -41 11 -43 13 -43 49 0 21 2 38 4 38 2 0 97 -51 212 -114 127
-68 210 -120 212 -130 6 -26 -13 -41 -116 -97 -54 -28 -119 -64 -147 -79 -183
-100 -210 -112 -245 -107 -32 4 -395 192 -463 240 -55 38 -40 52 188 174 116
62 211 113 213 113 1 0 2 -17 2 -38z m1523 6 c2 -7 0 -21 -5 -30 -7 -15 -22
-18 -82 -18 -77 0 -104 13 -92 45 7 20 172 22 179 3z m215 -15 c-3 -28 -4 -28
-79 -31 -80 -3 -108 10 -95 43 4 12 24 15 91 15 l86 0 -3 -27z m-1243 -64
c112 -27 246 -98 324 -172 133 -129 136 -288 8 -419 -83 -85 -192 -143 -362
-193 -127 -37 -137 -30 -16 11 58 19 134 51 170 71 91 50 193 154 214 217 62
184 -49 338 -328 456 -136 57 -136 58 -10 29z m-495 -7 c0 -11 -11 -24 -24
-30 -42 -19 -50 -46 -22 -79 23 -27 28 -28 114 -28 74 0 94 3 111 19 31 28 27
63 -9 84 -30 17 -42 52 -17 52 28 -1 97 -40 113 -65 36 -55 -8 -104 -119 -131
-156 -39 -330 44 -274 130 15 23 90 66 115 66 6 0 12 -8 12 -18z m-435 -51
c-125 -62 -203 -129 -244 -213 -110 -220 89 -439 479 -527 52 -12 124 -26 160
-30 51 -7 56 -9 25 -10 -62 -2 -200 17 -294 40 -163 41 -325 127 -396 211
-162 191 -53 418 260 545 119 48 124 40 10 -16z m372 -137 c34 -13 73 -19 133
-19 105 0 168 22 210 73 25 30 30 33 31 17 2 -39 -2 -50 -31 -77 -39 -36 -118
-58 -210 -58 -141 0 -240 50 -240 121 l0 34 29 -36 c17 -20 51 -44 78 -55z
m-150 -114 c303 -165 264 -165 567 0 174 95 230 131 238 149 l9 25 21 -33 c21
-32 21 -33 2 -51 -10 -11 -125 -77 -254 -147 -233 -127 -236 -128 -300 -128
-64 0 -67 1 -295 125 -126 69 -240 134 -253 145 -24 21 -24 22 -7 55 l17 34
13 -25 c9 -17 85 -64 242 -149z m-341 30 c-49 -108 -32 -186 59 -277 95 -95
223 -150 435 -189 l75 -13 -75 5 c-102 7 -212 30 -290 61 -79 31 -189 102
-226 146 -86 102 -84 218 7 322 45 50 51 26 15 -55z m1314 -15 c24 -49 26
-121 6 -170 -46 -110 -208 -215 -399 -260 -85 -20 -82 -12 5 15 273 82 408
259 323 426 -14 27 -25 60 -25 73 0 25 0 24 35 -9 19 -19 44 -53 55 -75z
m-960 -114 l205 -110 3 -62 c2 -47 0 -60 -10 -56 -7 3 -121 64 -253 135 l-240
130 -3 66 -3 66 48 -30 c26 -16 140 -78 253 -139z m833 38 c-10 -9 -490 -269
-498 -269 -3 0 -5 27 -5 59 l0 59 228 122 c125 68 238 131 252 141 l25 18 3
-61 c2 -34 -1 -64 -5 -69z m-523 -215 l0 -64 -40 0 -40 0 0 63 0 62 40 1 40 1
0 -63z m2262 -154 c10 -17 31 -38 48 -48 16 -9 30 -19 30 -22 0 -3 -14 -13
-30 -22 -17 -10 -38 -31 -48 -48 -9 -16 -19 -30 -22 -30 -3 0 -13 14 -22 30
-10 17 -31 38 -48 48 -16 9 -30 19 -30 22 0 3 14 13 30 22 17 10 38 31 48 48
9 16 19 30 22 30 3 0 13 -14 22 -30z"/>
<path d="M2489 1537 c-33 -22 -69 -91 -54 -105 4 -4 10 -2 12 5 12 33 52 80
81 95 46 22 50 28 20 28 -14 0 -40 -10 -59 -23z"/>
<path d="M3970 1240 c0 -5 7 -10 15 -10 8 0 15 5 15 10 0 6 -7 10 -15 10 -8 0
-15 -4 -15 -10z"/>
<path d="M4067 1246 c-9 -23 2 -26 80 -26 66 0 74 2 71 18 -3 14 -16 18 -74
20 -55 2 -73 0 -77 -12z"/>
<path d="M2113 963 c-20 -7 -15 -31 7 -38 10 -3 29 -1 40 5 38 20 -5 50 -47
33z"/>
<path d="M2954 956 c-18 -14 -18 -15 6 -24 29 -11 60 -4 60 13 0 12 -21 25
-39 25 -4 0 -16 -6 -27 -14z"/>
<path d="M2525 730 c-11 -18 10 -32 41 -28 40 4 38 32 -3 36 -17 2 -34 -2 -38
-8z"/>
<path d="M3975 1159 c-10 -15 3 -25 16 -12 7 7 7 13 1 17 -6 3 -14 1 -17 -5z"/>
<path d="M4065 1161 c-9 -15 6 -19 80 -22 59 -2 71 0 73 14 3 15 -7 17 -72 17
-41 0 -77 -4 -81 -9z"/>
</g>
</svg>
